REM DIRINDEX 1\2\4,1\2\5,1\2\6,1\3\7,1\3\8,1\3\9,1\3\10
REM DIRNAME cjc058,folder01,folder02,folder03,folder04,folder05,folder06,folder07,folder08,folder09
TITLE ""
FILE "b_64.mp3" MP3
  TRACK 01 AUDIO
    TITLE "0:"
    INDEX 01 00:00:00
  TRACK 02 AUDIO
    TITLE "10:cjc058_4805"
    INDEX 01 00:00:15
  TRACK 03 AUDIO
    TITLE "0:"
    INDEX 01 00:02:38
  TRACK 04 AUDIO
    TITLE "7:cjc058_4806"
    INDEX 01 00:03:04
  TRACK 05 AUDIO
    TITLE "0:"
    INDEX 01 00:04:58
  TRACK 06 AUDIO
    TITLE "8:cjc058_4807"
    INDEX 01 00:05:14
  TRACK 07 AUDIO
    TITLE "0:"
    INDEX 01 00:06:49
  TRACK 08 AUDIO
    TITLE "9:cjc058_4808"
    INDEX 01 00:07:15
  TRACK 09 AUDIO
    TITLE "0:"
    INDEX 01 00:11:58
  TRACK 10 AUDIO
    TITLE "7:cjc058_4809"
    INDEX 01 00:12:65
  TRACK 11 AUDIO
    TITLE "0:"
    INDEX 01 00:14:53
  TRACK 12 AUDIO
    TITLE "8:cjc058_4810"
    INDEX 01 00:15:05
  TRACK 13 AUDIO
    TITLE "0:"
    INDEX 01 00:17:08
  TRACK 14 AUDIO
    TITLE "9:cjc058_4811"
    INDEX 01 00:17:49
  TRACK 15 AUDIO
    TITLE "0:"
    INDEX 01 00:23:63
  TRACK 16 AUDIO
    TITLE "7:cjc058_4812"
    INDEX 01 00:24:67
  TRACK 17 AUDIO
    TITLE "0:"
    INDEX 01 00:26:58
  TRACK 18 AUDIO
    TITLE "8:cjc058_4813"
    INDEX 01 00:27:10
  TRACK 19 AUDIO
    TITLE "0:"
    INDEX 01 00:28:62
  TRACK 20 AUDIO
    TITLE "9:cjc058_4814"
    INDEX 01 00:29:33
  TRACK 21 AUDIO
    TITLE "0:"
    INDEX 01 00:31:41
  TRACK 22 AUDIO
    TITLE "7:cjc058_4815"
    INDEX 01 00:32:45
  TRACK 23 AUDIO
    TITLE "0:"
    INDEX 01 00:34:32
  TRACK 24 AUDIO
    TITLE "8:cjc058_4816"
    INDEX 01 00:34:63
  TRACK 25 AUDIO
    TITLE "0:"
    INDEX 01 00:36:17
  TRACK 26 AUDIO
    TITLE "9:cjc058_4817"
    INDEX 01 00:36:60
  TRACK 27 AUDIO
    TITLE "0:"
    INDEX 01 00:39:70
  TRACK 28 AUDIO
    TITLE "7:cjc058_4818"
    INDEX 01 00:41:00
  TRACK 29 AUDIO
    TITLE "0:"
    INDEX 01 00:42:59
  TRACK 30 AUDIO
    TITLE "8:cjc058_4819"
    INDEX 01 00:43:15
  TRACK 31 AUDIO
    TITLE "0:"
    INDEX 01 00:48:22
  TRACK 32 AUDIO
    TITLE "9:cjc058_4820"
    INDEX 01 00:48:63
  TRACK 33 AUDIO
    TITLE "0:"
    INDEX 01 00:52:55
  TRACK 34 AUDIO
    TITLE "7:cjc058_4821"
    INDEX 01 00:53:62
  TRACK 35 AUDIO
    TITLE "0:"
    INDEX 01 00:55:12
  TRACK 36 AUDIO
    TITLE "8:cjc058_4822"
    INDEX 01 00:55:42
  TRACK 37 AUDIO
    TITLE "0:"
    INDEX 01 00:58:28
  TRACK 38 AUDIO
    TITLE "9:cjc058_4823"
    INDEX 01 00:58:67
  TRACK 39 AUDIO
    TITLE "0:"
    INDEX 01 01:04:70
  TRACK 40 AUDIO
    TITLE "7:cjc058_4824"
    INDEX 01 01:05:73
  TRACK 41 AUDIO
    TITLE "0:"
    INDEX 01 01:07:19
  TRACK 42 AUDIO
    TITLE "8:cjc058_4825"
    INDEX 01 01:07:45
  TRACK 43 AUDIO
    TITLE "0:"
    INDEX 01 01:10:37
  TRACK 44 AUDIO
    TITLE "9:cjc058_4826"
    INDEX 01 01:11:02
  TRACK 45 AUDIO
    TITLE "0:"
    INDEX 01 01:16:46
  TRACK 46 AUDIO
    TITLE "7:cjc058_4827"
    INDEX 01 01:17:51
  TRACK 47 AUDIO
    TITLE "0:"
    INDEX 01 01:19:36
  TRACK 48 AUDIO
    TITLE "8:cjc058_4828"
    INDEX 01 01:19:66
  TRACK 49 AUDIO
    TITLE "0:"
    INDEX 01 01:24:10
  TRACK 50 AUDIO
    TITLE "9:cjc058_4829"
    INDEX 01 01:24:51
  TRACK 51 AUDIO
    TITLE "0:"
    INDEX 01 01:28:47
  TRACK 52 AUDIO
    TITLE "7:cjc058_4830"
    INDEX 01 01:29:50
  TRACK 53 AUDIO
    TITLE "0:"
    INDEX 01 01:32:35
  TRACK 54 AUDIO
    TITLE "8:cjc058_4831"
    INDEX 01 01:32:64
  TRACK 55 AUDIO
    TITLE "0:"
    INDEX 01 01:35:08
  TRACK 56 AUDIO
    TITLE "9:cjc058_4832"
    INDEX 01 01:35:49
  TRACK 57 AUDIO
    TITLE "0:"
    INDEX 01 01:40:48
  TRACK 58 AUDIO
    TITLE "7:cjc058_4833"
    INDEX 01 01:41:52
  TRACK 59 AUDIO
    TITLE "0:"
    INDEX 01 01:43:29
  TRACK 60 AUDIO
    TITLE "8:cjc058_4834"
    INDEX 01 01:43:60
  TRACK 61 AUDIO
    TITLE "0:"
    INDEX 01 01:45:40
  TRACK 62 AUDIO
    TITLE "9:cjc058_4835"
    INDEX 01 01:46:10
  TRACK 63 AUDIO
    TITLE "0:"
    INDEX 01 01:50:31
  TRACK 64 AUDIO
    TITLE "7:cjc058_4836"
    INDEX 01 01:51:36
  TRACK 65 AUDIO
    TITLE "0:"
    INDEX 01 01:53:23
  TRACK 66 AUDIO
    TITLE "8:cjc058_4837"
    INDEX 01 01:53:53
  TRACK 67 AUDIO
    TITLE "0:"
    INDEX 01 01:57:23
  TRACK 68 AUDIO
    TITLE "9:cjc058_4838"
    INDEX 01 01:57:66
  TRACK 69 AUDIO
    TITLE "0:"
    INDEX 01 02:03:14
  TRACK 70 AUDIO
    TITLE "7:cjc058_4839"
    INDEX 01 02:04:19
  TRACK 71 AUDIO
    TITLE "0:"
    INDEX 01 02:05:68
  TRACK 72 AUDIO
    TITLE "8:cjc058_4840"
    INDEX 01 02:06:24
  TRACK 73 AUDIO
    TITLE "0:"
    INDEX 01 02:08:00
  TRACK 74 AUDIO
    TITLE "9:cjc058_4841"
    INDEX 01 02:08:41
  TRACK 75 AUDIO
    TITLE "0:"
    INDEX 01 02:12:23
  TRACK 76 AUDIO
    TITLE "7:cjc058_4842"
    INDEX 01 02:13:30
  TRACK 77 AUDIO
    TITLE "0:"
    INDEX 01 02:15:03
  TRACK 78 AUDIO
    TITLE "8:cjc058_4843"
    INDEX 01 02:15:33
  TRACK 79 AUDIO
    TITLE "0:"
    INDEX 01 02:17:02
  TRACK 80 AUDIO
    TITLE "9:cjc058_4844"
    INDEX 01 02:17:44
  TRACK 81 AUDIO
    TITLE "0:"
    INDEX 01 02:20:73
  TRACK 82 AUDIO
    TITLE "7:cjc058_4845"
    INDEX 01 02:22:02
  TRACK 83 AUDIO
    TITLE "0:"
    INDEX 01 02:23:52
  TRACK 84 AUDIO
    TITLE "8:cjc058_4846"
    INDEX 01 02:24:08
  TRACK 85 AUDIO
    TITLE "0:"
    INDEX 01 02:25:41
  TRACK 86 AUDIO
    TITLE "9:cjc058_4847"
    INDEX 01 02:26:05
  TRACK 87 AUDIO
    TITLE "0:"
    INDEX 01 02:28:65
  TRACK 88 AUDIO
    TITLE "7:cjc058_4848"
    INDEX 01 02:29:68
  TRACK 89 AUDIO
    TITLE "0:"
    INDEX 01 02:31:51
  TRACK 90 AUDIO
    TITLE "8:cjc058_4849"
    INDEX 01 02:32:04
  TRACK 91 AUDIO
    TITLE "0:"
    INDEX 01 02:33:29
  TRACK 92 AUDIO
    TITLE "9:cjc058_4850"
    INDEX 01 02:33:74
  TRACK 93 AUDIO
    TITLE "0:"
    INDEX 01 02:39:41
  TRACK 94 AUDIO
    TITLE "7:cjc058_4851"
    INDEX 01 02:40:47
  TRACK 95 AUDIO
    TITLE "0:"
    INDEX 01 02:42:06
  TRACK 96 AUDIO
    TITLE "8:cjc058_4852"
    INDEX 01 02:42:36
  TRACK 97 AUDIO
    TITLE "0:"
    INDEX 01 02:44:05
  TRACK 98 AUDIO
    TITLE "9:cjc058_4853"
    INDEX 01 02:44:48
  TRACK 99 AUDIO
    TITLE "0:"
    INDEX 01 02:50:43
  TRACK 100 AUDIO
    TITLE "7:cjc058_4854"
    INDEX 01 02:51:48
  TRACK 101 AUDIO
    TITLE "0:"
    INDEX 01 02:53:02
  TRACK 102 AUDIO
    TITLE "8:cjc058_4855"
    INDEX 01 02:53:33
  TRACK 103 AUDIO
    TITLE "0:"
    INDEX 01 02:55:68
  TRACK 104 AUDIO
    TITLE "9:cjc058_4856"
    INDEX 01 02:56:34
  TRACK 105 AUDIO
    TITLE "0:"
    INDEX 01 03:00:00
  TRACK 106 AUDIO
    TITLE "7:cjc058_4857"
    INDEX 01 03:01:04
  TRACK 107 AUDIO
    TITLE "0:"
    INDEX 01 03:02:34
  TRACK 108 AUDIO
    TITLE "8:cjc058_4858"
    INDEX 01 03:02:62
  TRACK 109 AUDIO
    TITLE "0:"
    INDEX 01 03:05:41
  TRACK 110 AUDIO
    TITLE "9:cjc058_4859"
    INDEX 01 03:06:07
  TRACK 111 AUDIO
    TITLE "0:"
    INDEX 01 03:07:71
  TRACK 112 AUDIO
    TITLE "7:cjc058_4860"
    INDEX 01 03:08:74
  TRACK 113 AUDIO
    TITLE "0:"
    INDEX 01 03:10:44
  TRACK 114 AUDIO
    TITLE "8:cjc058_4861"
    INDEX 01 03:10:73
  TRACK 115 AUDIO
    TITLE "0:"
    INDEX 01 03:13:11
  TRACK 116 AUDIO
    TITLE "9:cjc058_4862"
    INDEX 01 03:13:50
  TRACK 117 AUDIO
    TITLE "0:"
    INDEX 01 03:17:22
  TRACK 118 AUDIO
    TITLE "7:cjc058_4863"
    INDEX 01 03:18:28
  TRACK 119 AUDIO
    TITLE "0:"
    INDEX 01 03:20:72
  TRACK 120 AUDIO
    TITLE "8:cjc058_4864"
    INDEX 01 03:21:26
  TRACK 121 AUDIO
    TITLE "0:"
    INDEX 01 03:23:48
  TRACK 122 AUDIO
    TITLE "9:cjc058_4865"
    INDEX 01 03:24:12
  TRACK 123 AUDIO
    TITLE "0:"
    INDEX 01 03:28:16
  TRACK 124 AUDIO
    TITLE "7:cjc058_4866"
    INDEX 01 03:29:20
  TRACK 125 AUDIO
    TITLE "0:"
    INDEX 01 03:31:28
  TRACK 126 AUDIO
    TITLE "8:cjc058_4867"
    INDEX 01 03:31:58
  TRACK 127 AUDIO
    TITLE "0:"
    INDEX 01 03:34:56
  TRACK 128 AUDIO
    TITLE "9:cjc058_4868"
    INDEX 01 03:35:22
  TRACK 129 AUDIO
    TITLE "0:"
    INDEX 01 03:39:26
